<svg xmlns="http://www.w3.org/2000/svg" xmlns:xlink="http://www.w3.org/1999/xlink" width="2000" zoomAndPan="magnify" viewBox="0 0 1500 1499.999933" height="2000" preserveAspectRatio="xMidYMid meet" version="1.0"><defs><g/><clipPath id="df388706ed"><rect x="0" width="439" y="0" height="440"/></clipPath><clipPath id="18327881c5"><rect x="0" width="586" y="0" height="552"/></clipPath><clipPath id="b168076519"><rect x="0" width="184" y="0" height="49"/></clipPath></defs><g transform="matrix(1, 0, 0, 1, 401, 442)"><g clip-path="url(#df388706ed)"><g fill="#e1ddd8" fill-opacity="1"><g transform="translate(0.469784, 340.009855)"><g><path d="M 8.90625 0 L 8.90625 -255.234375 L 58.234375 -255.234375 L 58.234375 0 Z M 8.90625 0 "/></g></g></g><g fill="#e1ddd8" fill-opacity="1"><g transform="translate(56.025078, 340.009855)"><g><path d="M 11.296875 0 L 11.296875 -255.234375 L 63.875 -255.234375 L 87.359375 -133.109375 L 87.359375 -255.234375 L 136.671875 -255.234375 L 136.671875 0 L 86.765625 0 L 61.203125 -127.765625 L 61.203125 0 Z M 11.296875 0 "/></g></g></g><g fill="#e1ddd8" fill-opacity="1"><g transform="translate(192.092709, 340.009855)"><g><path d="M 11.296875 0 L 11.296875 -255.234375 L 113.5 -255.234375 L 113.5 -205.609375 L 62.6875 -205.609375 L 62.6875 -164.90625 L 110.828125 -164.90625 L 110.828125 -115.875 L 62.6875 -115.875 L 62.6875 0 Z M 11.296875 0 "/></g></g></g><g fill="#e1ddd8" fill-opacity="1"><g transform="translate(298.748112, 340.009855)"><g><path d="M 72.203125 2.375 C 51.597656 2.375 35.945312 -3.910156 25.25 -16.484375 C 14.550781 -29.066406 9.203125 -46.75 9.203125 -69.53125 L 9.203125 -191.046875 C 9.203125 -213.035156 14.550781 -229.625 25.25 -240.8125 C 35.945312 -252.007812 51.597656 -257.609375 72.203125 -257.609375 C 92.804688 -257.609375 108.453125 -252.007812 119.140625 -240.8125 C 129.835938 -229.625 135.1875 -213.035156 135.1875 -191.046875 L 135.1875 -69.53125 C 135.1875 -46.550781 129.835938 -28.820312 119.140625 -16.34375 C 108.453125 -3.863281 92.804688 2.375 72.203125 2.375 Z M 72.203125 -44.5625 C 76.753906 -44.5625 79.820312 -46.539062 81.40625 -50.5 C 83 -54.46875 83.796875 -60.019531 83.796875 -67.15625 L 83.796875 -191.9375 C 83.796875 -197.488281 83.050781 -201.992188 81.5625 -205.453125 C 80.070312 -208.921875 77.050781 -210.65625 72.5 -210.65625 C 63.976562 -210.65625 59.71875 -204.21875 59.71875 -191.34375 L 59.71875 -66.859375 C 59.71875 -59.523438 60.609375 -53.972656 62.390625 -50.203125 C 64.179688 -46.441406 67.453125 -44.5625 72.203125 -44.5625 Z M 72.203125 -44.5625 "/></g></g></g></g></g><g transform="matrix(1, 0, 0, 1, 788, 587)"><g clip-path="url(#18327881c5)"><g fill="#6aa6c8" fill-opacity="1"><g transform="translate(26.938243, 327.135446)"><g><path d="M 32.09375 8.84375 L 86.84375 -189.953125 L 57.609375 -198.015625 L 70.625 -245.296875 L 178.328125 -215.625 L 165.3125 -168.34375 L 136.109375 -176.390625 L 81.359375 22.40625 Z M 32.09375 8.84375 "/></g></g></g><g fill="#6aa6c8" fill-opacity="1"><g transform="translate(128.905633, 355.219148)"><g><path d="M 10.890625 3 L 78.65625 -243.078125 L 177.1875 -215.9375 L 164.09375 -168.375 L 115.6875 -181.71875 L 102.515625 -133.875 L 148.921875 -121.09375 L 136.140625 -74.6875 L 89.734375 -87.46875 L 74.1875 -31.046875 L 125.75 -16.84375 L 112.578125 31 Z M 10.890625 3 "/></g></g></g><g fill="#6aa6c8" fill-opacity="1"><g transform="translate(235.455892, 384.565056)"><g><path d="M 67.546875 21.078125 C 49.597656 16.128906 36.773438 6.535156 29.078125 -7.703125 C 21.390625 -21.953125 20.253906 -38.910156 25.671875 -58.578125 L 56.921875 -172.015625 C 63.648438 -196.460938 73.59375 -213.550781 86.75 -223.28125 C 99.914062 -233.007812 116.910156 -235.003906 137.734375 -229.265625 C 155.867188 -224.273438 169.101562 -215.285156 177.4375 -202.296875 C 185.78125 -189.316406 187.378906 -173.472656 182.234375 -154.765625 L 170.546875 -112.359375 L 121.5625 -125.84375 L 131.59375 -162.21875 C 133.53125 -169.289062 134.007812 -174.398438 133.03125 -177.546875 C 132.050781 -180.691406 129.460938 -182.84375 125.265625 -184 C 120.867188 -185.207031 117.4375 -184.507812 114.96875 -181.90625 C 112.5 -179.300781 110.453125 -175.035156 108.828125 -169.109375 L 74.8125 -45.640625 C 73.03125 -39.148438 72.6875 -34.160156 73.78125 -30.671875 C 74.875 -27.191406 77.332031 -24.925781 81.15625 -23.875 C 88.789062 -21.769531 94.316406 -26.921875 97.734375 -39.328125 L 109.96875 -83.734375 L 159.515625 -70.09375 L 146.734375 -23.6875 C 135.378906 17.5625 108.984375 32.484375 67.546875 21.078125 Z M 67.546875 21.078125 "/></g></g></g><g fill="#6aa6c8" fill-opacity="1"><g transform="translate(359.764731, 418.802005)"><g><path d="M 10.890625 3 L 78.65625 -243.078125 L 127.625 -229.59375 L 103.40625 -141.640625 L 126.625 -135.25 L 150.84375 -223.203125 L 199.8125 -209.703125 L 132.046875 36.375 L 83.078125 22.875 L 113.84375 -88.84375 L 90.625 -95.234375 L 59.859375 16.484375 Z M 10.890625 3 "/></g></g></g></g></g><g transform="matrix(1, 0, 0, 1, 401, 815)"><g clip-path="url(#b168076519)"><g fill="#e1ddd8" fill-opacity="1"><g transform="translate(0.469784, 36.949926)"><g><path d="M 28.21875 -11.84375 C 28.21875 -9.53125 27.769531 -7.546875 26.875 -5.890625 C 25.988281 -4.242188 24.816406 -2.925781 23.359375 -1.9375 C 21.898438 -0.957031 20.296875 -0.304688 18.546875 0.015625 C 16.804688 0.347656 15.054688 0.347656 13.296875 0.015625 C 11.535156 -0.304688 9.925781 -0.957031 8.46875 -1.9375 C 7.007812 -2.925781 5.832031 -4.242188 4.9375 -5.890625 C 4.050781 -7.546875 3.609375 -9.53125 3.609375 -11.84375 L 3.609375 -34.015625 L 10.421875 -34.015625 L 10.421875 -11.890625 C 10.421875 -10.460938 10.789062 -9.320312 11.53125 -8.46875 C 12.28125 -7.613281 13.203125 -7.039062 14.296875 -6.75 C 15.390625 -6.46875 16.484375 -6.46875 17.578125 -6.75 C 18.671875 -7.039062 19.585938 -7.613281 20.328125 -8.46875 C 21.078125 -9.320312 21.453125 -10.460938 21.453125 -11.890625 L 21.453125 -34.015625 L 28.21875 -34.015625 Z M 28.21875 -11.84375 "/></g></g></g><g fill="#e1ddd8" fill-opacity="1"><g transform="translate(50.861503, 36.949926)"><g><path d="M 10.609375 -18.515625 L 10.609375 0 L 3.8125 0 L 3.8125 -34.734375 L 5.609375 -34.734375 L 22.796875 -14.75 L 22.796875 -33.96875 L 29.640625 -33.96875 L 29.640625 0.71875 L 27.828125 0.71875 Z M 10.609375 -18.515625 "/></g></g></g><g fill="#e1ddd8" fill-opacity="1"><g transform="translate(102.823304, 36.949926)"><g><path d="M 10.609375 0 L 3.8125 0 L 3.8125 -34.015625 L 10.609375 -34.015625 Z M 10.609375 0 "/></g></g></g><g fill="#e1ddd8" fill-opacity="1"><g transform="translate(135.753858, 36.949926)"><g><path d="M 10.609375 0 L 3.8125 0 L 3.8125 -33.96875 L 17.171875 -33.96875 C 19.078125 -33.96875 20.703125 -33.585938 22.046875 -32.828125 C 23.398438 -32.066406 24.472656 -31.066406 25.265625 -29.828125 C 26.054688 -28.585938 26.585938 -27.210938 26.859375 -25.703125 C 27.128906 -24.203125 27.128906 -22.707031 26.859375 -21.21875 C 26.585938 -19.726562 26.046875 -18.363281 25.234375 -17.125 C 24.429688 -15.882812 23.351562 -14.882812 22 -14.125 C 20.65625 -13.363281 19.046875 -12.984375 17.171875 -12.984375 L 10.609375 -12.984375 Z M 10.609375 -19.609375 L 16.609375 -19.609375 C 17.523438 -19.609375 18.253906 -19.859375 18.796875 -20.359375 C 19.335938 -20.867188 19.703125 -21.503906 19.890625 -22.265625 C 20.078125 -23.023438 20.078125 -23.785156 19.890625 -24.546875 C 19.703125 -25.304688 19.335938 -25.941406 18.796875 -26.453125 C 18.253906 -26.960938 17.523438 -27.21875 16.609375 -27.21875 L 10.609375 -27.21875 Z M 10.609375 -19.609375 "/></g></g></g></g></g></svg>